<?xml version="1.0" encoding="UTF-8"?><svg xmlns="http://www.w3.org/2000/svg" xmlns:xlink="http://www.w3.org/1999/xlink" contentScriptType="text/ecmascript" width="375" zoomAndPan="magnify" contentStyleType="text/css" viewBox="0 0 375 374.999991" height="374.999991" preserveAspectRatio="xMidYMid meet" version="1.0"><defs><clipPath id="clip-0"><path d="M 69.863281 50.203125 L 359.257812 50.203125 L 359.257812 339.597656 L 69.863281 339.597656 Z M 69.863281 50.203125 " clip-rule="nonzero"/></clipPath><clipPath id="clip-1"><path d="M 79.335938 60.445312 L 351.929688 60.445312 L 351.929688 333.035156 L 79.335938 333.035156 Z M 79.335938 60.445312 " clip-rule="nonzero"/></clipPath><clipPath id="clip-2"><path d="M 82.019531 78.464844 L 344.609375 78.464844 L 344.609375 341.058594 L 82.019531 341.058594 Z M 82.019531 78.464844 " clip-rule="nonzero"/></clipPath></defs><path fill="rgb(54.899597%, 32.159424%, 100%)" d="M 193.324219 5.054688 C 95.652344 5.054688 16.472656 85.894531 16.472656 185.617188 C 16.472656 285.339844 95.652344 366.179688 193.324219 366.179688 C 290.996094 366.179688 370.175781 285.339844 370.175781 185.617188 C 370.175781 85.894531 290.996094 5.054688 193.324219 5.054688 Z M 193.324219 5.054688 " fill-opacity="1" fill-rule="nonzero"/><path fill="rgb(100%, 100%, 100%)" d="M 209.113281 41.042969 C 127.148438 41.042969 60.703125 107.488281 60.703125 189.449219 C 60.703125 271.414062 127.148438 337.859375 209.113281 337.859375 C 291.074219 337.859375 357.519531 271.414062 357.519531 189.449219 C 357.519531 107.488281 291.074219 41.042969 209.113281 41.042969 Z M 209.113281 41.042969 " fill-opacity="1" fill-rule="nonzero"/><path fill="rgb(0%, 0%, 0%)" d="M 242.785156 89.789062 C 179.261719 89.789062 127.765625 141.28125 127.765625 204.804688 C 127.765625 268.324219 179.261719 319.820312 242.785156 319.820312 C 306.304688 319.820312 357.800781 268.324219 357.800781 204.804688 C 357.800781 141.28125 306.304688 89.789062 242.785156 89.789062 Z M 242.785156 89.789062 " fill-opacity="1" fill-rule="nonzero"/><path fill="rgb(100%, 100%, 100%)" d="M 268.574219 123.800781 C 254.230469 123.800781 242.605469 135.429688 242.605469 149.773438 C 242.605469 164.117188 254.230469 175.746094 268.574219 175.746094 C 282.917969 175.746094 294.546875 164.117188 294.546875 149.773438 C 294.546875 135.429688 282.917969 123.800781 268.574219 123.800781 Z M 268.574219 123.800781 " fill-opacity="1" fill-rule="nonzero"/><path fill="rgb(100%, 100%, 100%)" d="M 155.890625 149.421875 C 125.835938 149.421875 101.472656 174.339844 101.472656 205.074219 C 101.472656 235.8125 125.835938 260.730469 155.890625 260.730469 C 185.941406 260.730469 210.304688 235.8125 210.304688 205.074219 C 210.304688 174.339844 185.941406 149.421875 155.890625 149.421875 Z M 155.890625 149.421875 " fill-opacity="1" fill-rule="nonzero"/><g clip-path="url(#clip-0)"><path fill="rgb(54.899597%, 32.159424%, 100%)" d="M 214.5625 339.597656 C 134.621094 339.597656 69.863281 274.394531 69.863281 194.902344 C 69.863281 115.40625 134.621094 50.203125 214.5625 50.203125 C 294.5 50.203125 359.257812 114.960938 359.257812 194.902344 C 359.257812 274.839844 294.054688 339.597656 214.5625 339.597656 Z M 214.5625 59.136719 C 139.53125 59.136719 78.796875 119.871094 78.796875 194.902344 C 78.796875 269.929688 139.53125 330.667969 214.5625 330.667969 C 289.589844 330.667969 350.328125 269.929688 350.328125 194.902344 C 350.328125 119.871094 289.144531 59.136719 214.5625 59.136719 Z M 214.5625 59.136719 " fill-opacity="1" fill-rule="nonzero"/></g><path fill="rgb(33.729553%, 100%, 76.078796%)" d="M 195.628906 17.917969 C 103.628906 17.917969 29.046875 94.066406 29.046875 187.996094 C 29.046875 281.929688 103.628906 358.074219 195.628906 358.074219 C 287.632812 358.074219 362.210938 281.929688 362.210938 187.996094 C 362.210938 94.066406 287.632812 17.917969 195.628906 17.917969 Z M 195.628906 17.917969 " fill-opacity="1" fill-rule="nonzero"/><path fill="rgb(33.729553%, 100%, 76.078796%)" d="M 210.5 51.816406 C 133.296875 51.816406 70.710938 114.402344 70.710938 191.609375 C 70.710938 268.8125 133.296875 331.398438 210.5 331.398438 C 287.703125 331.398438 350.289062 268.8125 350.289062 191.609375 C 350.289062 114.402344 287.703125 51.816406 210.5 51.816406 Z M 210.5 51.816406 " fill-opacity="1" fill-rule="nonzero"/><path fill="rgb(33.729553%, 100%, 76.078796%)" d="M 242.214844 97.730469 C 182.382812 97.730469 133.878906 146.234375 133.878906 206.066406 C 133.878906 265.902344 182.382812 314.40625 242.214844 314.40625 C 302.050781 314.40625 350.554688 265.902344 350.554688 206.066406 C 350.554688 146.234375 302.050781 97.730469 242.214844 97.730469 Z M 242.214844 97.730469 " fill-opacity="1" fill-rule="nonzero"/><path fill="rgb(33.729553%, 100%, 76.078796%)" d="M 266.511719 129.769531 C 253 129.769531 242.046875 140.722656 242.046875 154.234375 C 242.046875 167.746094 253 178.699219 266.511719 178.699219 C 280.019531 178.699219 290.972656 167.746094 290.972656 154.234375 C 290.972656 140.722656 280.019531 129.769531 266.511719 129.769531 Z M 266.511719 129.769531 " fill-opacity="1" fill-rule="nonzero"/><path fill="rgb(33.729553%, 100%, 76.078796%)" d="M 160.367188 153.902344 C 132.058594 153.902344 109.113281 177.375 109.113281 206.324219 C 109.113281 235.277344 132.058594 258.746094 160.367188 258.746094 C 188.675781 258.746094 211.625 235.277344 211.625 206.324219 C 211.625 177.375 188.675781 153.902344 160.367188 153.902344 Z M 160.367188 153.902344 " fill-opacity="1" fill-rule="nonzero"/><g clip-path="url(#clip-1)"><path fill="rgb(100%, 100%, 100%)" d="M 215.632812 333.035156 C 140.332031 333.035156 79.335938 271.617188 79.335938 196.742188 C 79.335938 121.863281 140.332031 60.445312 215.632812 60.445312 C 290.929688 60.445312 351.929688 121.441406 351.929688 196.742188 C 351.929688 272.039062 290.511719 333.035156 215.632812 333.035156 Z M 215.632812 68.859375 C 144.960938 68.859375 87.75 126.070312 87.75 196.742188 C 87.75 267.414062 144.960938 324.621094 215.632812 324.621094 C 286.304688 324.621094 343.515625 267.414062 343.515625 196.742188 C 343.515625 126.070312 285.882812 68.859375 215.632812 68.859375 Z M 215.632812 68.859375 " fill-opacity="1" fill-rule="nonzero"/></g><path fill="rgb(0%, 0%, 0%)" d="M 194.046875 37.5 C 105.421875 37.5 33.574219 110.851562 33.574219 201.339844 C 33.574219 291.824219 105.421875 365.175781 194.046875 365.175781 C 282.671875 365.175781 354.519531 291.824219 354.519531 201.339844 C 354.519531 110.851562 282.671875 37.5 194.046875 37.5 Z M 194.046875 37.5 " fill-opacity="1" fill-rule="nonzero"/><path fill="rgb(100%, 100%, 100%)" d="M 208.371094 70.15625 C 134 70.15625 73.710938 130.445312 73.710938 204.816406 C 73.710938 279.1875 134 339.476562 208.371094 339.476562 C 282.742188 339.476562 343.03125 279.1875 343.03125 204.816406 C 343.03125 130.445312 282.742188 70.15625 208.371094 70.15625 Z M 208.371094 70.15625 " fill-opacity="1" fill-rule="nonzero"/><path fill="rgb(0%, 0%, 0%)" d="M 238.925781 114.382812 C 181.285156 114.382812 134.5625 161.109375 134.5625 218.746094 C 134.5625 276.382812 181.285156 323.109375 238.925781 323.109375 C 296.5625 323.109375 343.285156 276.382812 343.285156 218.746094 C 343.285156 161.109375 296.5625 114.382812 238.925781 114.382812 Z M 238.925781 114.382812 " fill-opacity="1" fill-rule="nonzero"/><path fill="rgb(100%, 100%, 100%)" d="M 262.328125 145.25 C 249.3125 145.25 238.761719 155.800781 238.761719 168.816406 C 238.761719 181.828125 249.3125 192.378906 262.328125 192.378906 C 275.34375 192.378906 285.894531 181.828125 285.894531 168.816406 C 285.894531 155.800781 275.34375 145.25 262.328125 145.25 Z M 262.328125 145.25 " fill-opacity="1" fill-rule="nonzero"/><path fill="rgb(100%, 100%, 100%)" d="M 160.078125 168.496094 C 132.808594 168.496094 110.703125 191.105469 110.703125 218.996094 C 110.703125 246.882812 132.808594 269.492188 160.078125 269.492188 C 187.347656 269.492188 209.453125 246.882812 209.453125 218.996094 C 209.453125 191.105469 187.347656 168.496094 160.078125 168.496094 Z M 160.078125 168.496094 " fill-opacity="1" fill-rule="nonzero"/><g clip-path="url(#clip-2)"><path fill="rgb(100%, 100%, 100%)" d="M 213.316406 341.058594 C 140.777344 341.058594 82.019531 281.894531 82.019531 209.761719 C 82.019531 137.628906 140.777344 78.464844 213.316406 78.464844 C 285.851562 78.464844 344.609375 137.226562 344.609375 209.761719 C 344.609375 282.296875 285.445312 341.058594 213.316406 341.058594 Z M 213.316406 86.570312 C 145.238281 86.570312 90.125 141.683594 90.125 209.761719 C 90.125 277.839844 145.238281 332.953125 213.316406 332.953125 C 281.394531 332.953125 336.507812 277.839844 336.507812 209.761719 C 336.507812 141.683594 280.988281 86.570312 213.316406 86.570312 Z M 213.316406 86.570312 " fill-opacity="1" fill-rule="nonzero"/></g></svg>