<?xml version="1.0" encoding="UTF-8"?><svg xmlns="http://www.w3.org/2000/svg" xmlns:xlink="http://www.w3.org/1999/xlink" contentScriptType="text/ecmascript" width="375" zoomAndPan="magnify" contentStyleType="text/css" viewBox="0 0 375 374.999991" height="374.999991" preserveAspectRatio="xMidYMid meet" version="1.0"><defs><clipPath id="clip-0"><path d="M 65.886719 53.71875 L 351.636719 53.71875 L 351.636719 339.46875 L 65.886719 339.46875 Z M 65.886719 53.71875 " clip-rule="nonzero"/></clipPath></defs><path fill="rgb(0%, 0%, 0%)" d="M 187.492188 9.09375 C 91.1875 9.09375 13.117188 89.011719 13.117188 187.59375 C 13.117188 286.179688 91.1875 366.09375 187.492188 366.09375 C 283.796875 366.09375 361.867188 286.179688 361.867188 187.59375 C 361.867188 89.011719 283.796875 9.09375 187.492188 9.09375 Z M 187.492188 9.09375 " fill-opacity="1" fill-rule="nonzero"/><path fill="rgb(100%, 100%, 100%)" d="M 204.207031 44.664062 C 122.816406 44.664062 56.832031 110.648438 56.832031 192.039062 C 56.832031 273.433594 122.816406 339.414062 204.207031 339.414062 C 285.601562 339.414062 351.582031 273.433594 351.582031 192.039062 C 351.582031 110.648438 285.601562 44.664062 204.207031 44.664062 Z M 204.207031 44.664062 " fill-opacity="1" fill-rule="nonzero"/><path fill="rgb(0%, 0%, 0%)" d="M 237.117188 92.84375 C 174.15625 92.84375 123.117188 143.882812 123.117188 206.84375 C 123.117188 269.804688 174.15625 320.84375 237.117188 320.84375 C 300.078125 320.84375 351.117188 269.804688 351.117188 206.84375 C 351.117188 143.882812 300.078125 92.84375 237.117188 92.84375 Z M 237.117188 92.84375 " fill-opacity="1" fill-rule="nonzero"/><path fill="rgb(100%, 100%, 100%)" d="M 262.121094 126.464844 C 248.039062 126.464844 236.621094 137.878906 236.621094 151.964844 C 236.621094 166.046875 248.039062 177.464844 262.121094 177.464844 C 276.203125 177.464844 287.621094 166.046875 287.621094 151.964844 C 287.621094 137.878906 276.203125 126.464844 262.121094 126.464844 Z M 262.121094 126.464844 " fill-opacity="1" fill-rule="nonzero"/><path fill="rgb(100%, 100%, 100%)" d="M 150.753906 151.785156 C 121.136719 151.785156 97.128906 176.464844 97.128906 206.910156 C 97.128906 237.355469 121.136719 262.035156 150.753906 262.035156 C 180.371094 262.035156 204.378906 237.355469 204.378906 206.910156 C 204.378906 176.464844 180.371094 151.785156 150.753906 151.785156 Z M 150.753906 151.785156 " fill-opacity="1" fill-rule="nonzero"/><g clip-path="url(#clip-0)"><path fill="rgb(100%, 100%, 100%)" d="M 208.761719 339.46875 C 129.828125 339.46875 65.886719 275.085938 65.886719 196.59375 C 65.886719 118.101562 129.828125 53.71875 208.761719 53.71875 C 287.695312 53.71875 351.636719 117.660156 351.636719 196.59375 C 351.636719 275.527344 287.253906 339.46875 208.761719 339.46875 Z M 208.761719 62.539062 C 134.679688 62.539062 74.707031 122.511719 74.707031 196.59375 C 74.707031 270.675781 134.679688 330.648438 208.761719 330.648438 C 282.84375 330.648438 342.816406 270.675781 342.816406 196.59375 C 342.816406 122.511719 282.40625 62.539062 208.761719 62.539062 Z M 208.761719 62.539062 " fill-opacity="1" fill-rule="nonzero"/></g></svg>