<?xml version="1.0" encoding="UTF-8"?><svg xmlns="http://www.w3.org/2000/svg" xmlns:xlink="http://www.w3.org/1999/xlink" contentScriptType="text/ecmascript" width="375" zoomAndPan="magnify" contentStyleType="text/css" viewBox="0 0 375 374.999991" height="374.999991" preserveAspectRatio="xMidYMid meet" version="1.0"><defs><clipPath id="clip-0"><path d="M 94.257812 40.703125 L 313.257812 40.703125 L 313.257812 259.703125 L 94.257812 259.703125 Z M 94.257812 40.703125 " clip-rule="nonzero"/></clipPath></defs><path fill="rgb(0%, 0%, 0%)" d="M 187.671875 6.488281 C 113.734375 6.488281 53.796875 67.769531 53.796875 143.363281 C 53.796875 218.957031 113.734375 280.238281 187.671875 280.238281 C 261.609375 280.238281 321.546875 218.957031 321.546875 143.363281 C 321.546875 67.769531 261.609375 6.488281 187.671875 6.488281 Z M 187.671875 6.488281 " fill-opacity="1" fill-rule="nonzero"/><path fill="rgb(100%, 100%, 100%)" d="M 200.191406 33.761719 C 137.851562 33.761719 87.316406 84.296875 87.316406 146.636719 C 87.316406 208.976562 137.851562 259.511719 200.191406 259.511719 C 262.53125 259.511719 313.066406 208.976562 313.066406 146.636719 C 313.066406 84.296875 262.53125 33.761719 200.191406 33.761719 Z M 200.191406 33.761719 " fill-opacity="1" fill-rule="nonzero"/><path fill="rgb(0%, 0%, 0%)" d="M 225.511719 70.699219 C 177.257812 70.699219 138.136719 109.820312 138.136719 158.074219 C 138.136719 206.332031 177.257812 245.449219 225.511719 245.449219 C 273.769531 245.449219 312.886719 206.332031 312.886719 158.074219 C 312.886719 109.820312 273.769531 70.699219 225.511719 70.699219 Z M 225.511719 70.699219 " fill-opacity="1" fill-rule="nonzero"/><path fill="rgb(100%, 100%, 100%)" d="M 244.660156 96.476562 C 233.890625 96.476562 225.160156 105.207031 225.160156 115.976562 C 225.160156 126.746094 233.890625 135.476562 244.660156 135.476562 C 255.429688 135.476562 264.160156 126.746094 264.160156 115.976562 C 264.160156 105.207031 255.429688 96.476562 244.660156 96.476562 Z M 244.660156 96.476562 " fill-opacity="1" fill-rule="nonzero"/><path fill="rgb(100%, 100%, 100%)" d="M 159.085938 115.890625 C 136.511719 115.890625 118.210938 134.863281 118.210938 158.265625 C 118.210938 181.671875 136.511719 200.640625 159.085938 200.640625 C 181.660156 200.640625 199.960938 181.671875 199.960938 158.265625 C 199.960938 134.863281 181.660156 115.890625 159.085938 115.890625 Z M 159.085938 115.890625 " fill-opacity="1" fill-rule="nonzero"/><g clip-path="url(#clip-0)"><path fill="rgb(100%, 100%, 100%)" d="M 203.757812 259.703125 C 143.261719 259.703125 94.257812 210.359375 94.257812 150.203125 C 94.257812 90.046875 143.261719 40.703125 203.757812 40.703125 C 264.253906 40.703125 313.257812 89.707031 313.257812 150.203125 C 313.257812 210.699219 263.914062 259.703125 203.757812 259.703125 Z M 203.757812 47.460938 C 146.980469 47.460938 101.015625 93.425781 101.015625 150.203125 C 101.015625 206.980469 146.980469 252.945312 203.757812 252.945312 C 260.535156 252.945312 306.5 206.980469 306.5 150.203125 C 306.5 93.425781 260.199219 47.460938 203.757812 47.460938 Z M 203.757812 47.460938 " fill-opacity="1" fill-rule="nonzero"/></g></svg>