<?xml version="1.0" encoding="UTF-8"?><svg xmlns="http://www.w3.org/2000/svg" xmlns:xlink="http://www.w3.org/1999/xlink" contentScriptType="text/ecmascript" width="375" zoomAndPan="magnify" contentStyleType="text/css" viewBox="0 0 375 374.999991" height="374.999991" preserveAspectRatio="xMidYMid meet" version="1.0"><defs><clipPath id="clip-0"><path d="M 73.816406 54.371094 L 359.390625 54.371094 L 359.390625 339.945312 L 73.816406 339.945312 Z M 73.816406 54.371094 " clip-rule="nonzero"/></clipPath><clipPath id="clip-1"><path d="M 79.335938 60.445312 L 351.929688 60.445312 L 351.929688 333.035156 L 79.335938 333.035156 Z M 79.335938 60.445312 " clip-rule="nonzero"/></clipPath><clipPath id="clip-2"><path d="M 58.328125 53.480469 L 343.8125 53.480469 L 343.8125 338.964844 L 58.328125 338.964844 Z M 58.328125 53.480469 " clip-rule="nonzero"/></clipPath></defs><path fill="rgb(54.899597%, 32.159424%, 100%)" d="M 195.648438 9.820312 C 99.265625 9.820312 21.128906 89.59375 21.128906 188 C 21.128906 286.40625 99.265625 366.179688 195.648438 366.179688 C 292.03125 366.179688 370.167969 286.40625 370.167969 188 C 370.167969 89.59375 292.03125 9.820312 195.648438 9.820312 Z M 195.648438 9.820312 " fill-opacity="1" fill-rule="nonzero"/><path fill="rgb(100%, 100%, 100%)" d="M 211.226562 45.332031 C 130.34375 45.332031 64.777344 110.902344 64.777344 191.78125 C 64.777344 272.664062 130.34375 338.230469 211.226562 338.230469 C 292.109375 338.230469 357.675781 272.664062 357.675781 191.78125 C 357.675781 110.902344 292.109375 45.332031 211.226562 45.332031 Z M 211.226562 45.332031 " fill-opacity="1" fill-rule="nonzero"/><path fill="rgb(0%, 0%, 0%)" d="M 244.453125 93.433594 C 181.769531 93.433594 130.957031 144.25 130.957031 206.929688 C 130.957031 269.613281 181.769531 320.429688 244.453125 320.429688 C 307.136719 320.429688 357.953125 269.613281 357.953125 206.929688 C 357.953125 144.25 307.136719 93.433594 244.453125 93.433594 Z M 244.453125 93.433594 " fill-opacity="1" fill-rule="nonzero"/><path fill="rgb(100%, 100%, 100%)" d="M 269.90625 127 C 255.75 127 244.277344 138.476562 244.277344 152.628906 C 244.277344 166.78125 255.75 178.257812 269.90625 178.257812 C 284.058594 178.257812 295.535156 166.78125 295.535156 152.628906 C 295.535156 138.476562 284.058594 127 269.90625 127 Z M 269.90625 127 " fill-opacity="1" fill-rule="nonzero"/><path fill="rgb(100%, 100%, 100%)" d="M 158.707031 152.28125 C 129.050781 152.28125 105.007812 176.871094 105.007812 207.199219 C 105.007812 237.53125 129.050781 262.117188 158.707031 262.117188 C 188.363281 262.117188 212.40625 237.53125 212.40625 207.199219 C 212.40625 176.871094 188.363281 152.28125 158.707031 152.28125 Z M 158.707031 152.28125 " fill-opacity="1" fill-rule="nonzero"/><g clip-path="url(#clip-0)"><path fill="rgb(54.899597%, 32.159424%, 100%)" d="M 216.605469 339.945312 C 137.71875 339.945312 73.816406 275.605469 73.816406 197.160156 C 73.816406 118.714844 137.71875 54.371094 216.605469 54.371094 C 295.488281 54.371094 359.390625 118.273438 359.390625 197.160156 C 359.390625 276.046875 295.050781 339.945312 216.605469 339.945312 Z M 216.605469 63.1875 C 142.566406 63.1875 82.632812 123.121094 82.632812 197.160156 C 82.632812 271.199219 142.566406 331.132812 216.605469 331.132812 C 290.640625 331.132812 350.578125 271.199219 350.578125 197.160156 C 350.578125 123.121094 290.203125 63.1875 216.605469 63.1875 Z M 216.605469 63.1875 " fill-opacity="1" fill-rule="nonzero"/></g><path fill="rgb(33.729553%, 100%, 76.078796%)" d="M 195.628906 17.917969 C 103.628906 17.917969 29.046875 94.066406 29.046875 187.996094 C 29.046875 281.929688 103.628906 358.074219 195.628906 358.074219 C 287.632812 358.074219 362.210938 281.929688 362.210938 187.996094 C 362.210938 94.066406 287.632812 17.917969 195.628906 17.917969 Z M 195.628906 17.917969 " fill-opacity="1" fill-rule="nonzero"/><path fill="rgb(33.729553%, 100%, 76.078796%)" d="M 210.5 51.816406 C 133.296875 51.816406 70.710938 114.402344 70.710938 191.609375 C 70.710938 268.8125 133.296875 331.398438 210.5 331.398438 C 287.703125 331.398438 350.289062 268.8125 350.289062 191.609375 C 350.289062 114.402344 287.703125 51.816406 210.5 51.816406 Z M 210.5 51.816406 " fill-opacity="1" fill-rule="nonzero"/><path fill="rgb(33.729553%, 100%, 76.078796%)" d="M 242.214844 97.730469 C 182.382812 97.730469 133.878906 146.234375 133.878906 206.066406 C 133.878906 265.902344 182.382812 314.40625 242.214844 314.40625 C 302.050781 314.40625 350.554688 265.902344 350.554688 206.066406 C 350.554688 146.234375 302.050781 97.730469 242.214844 97.730469 Z M 242.214844 97.730469 " fill-opacity="1" fill-rule="nonzero"/><path fill="rgb(33.729553%, 100%, 76.078796%)" d="M 266.511719 129.769531 C 253 129.769531 242.046875 140.722656 242.046875 154.234375 C 242.046875 167.746094 253 178.699219 266.511719 178.699219 C 280.019531 178.699219 290.972656 167.746094 290.972656 154.234375 C 290.972656 140.722656 280.019531 129.769531 266.511719 129.769531 Z M 266.511719 129.769531 " fill-opacity="1" fill-rule="nonzero"/><path fill="rgb(33.729553%, 100%, 76.078796%)" d="M 160.367188 153.902344 C 132.058594 153.902344 109.113281 177.375 109.113281 206.324219 C 109.113281 235.277344 132.058594 258.746094 160.367188 258.746094 C 188.675781 258.746094 211.625 235.277344 211.625 206.324219 C 211.625 177.375 188.675781 153.902344 160.367188 153.902344 Z M 160.367188 153.902344 " fill-opacity="1" fill-rule="nonzero"/><g clip-path="url(#clip-1)"><path fill="rgb(100%, 100%, 100%)" d="M 215.632812 333.035156 C 140.332031 333.035156 79.335938 271.617188 79.335938 196.742188 C 79.335938 121.863281 140.332031 60.445312 215.632812 60.445312 C 290.929688 60.445312 351.929688 121.441406 351.929688 196.742188 C 351.929688 272.039062 290.511719 333.035156 215.632812 333.035156 Z M 215.632812 68.859375 C 144.960938 68.859375 87.75 126.070312 87.75 196.742188 C 87.75 267.414062 144.960938 324.621094 215.632812 324.621094 C 286.304688 324.621094 343.515625 267.414062 343.515625 196.742188 C 343.515625 126.070312 285.882812 68.859375 215.632812 68.859375 Z M 215.632812 68.859375 " fill-opacity="1" fill-rule="nonzero"/></g><path fill="rgb(0%, 0%, 0%)" d="M 180.121094 8.941406 C 83.769531 8.941406 5.660156 88.691406 5.660156 187.0625 C 5.660156 285.4375 83.769531 365.1875 180.121094 365.1875 C 276.476562 365.1875 354.585938 285.4375 354.585938 187.0625 C 354.585938 88.691406 276.476562 8.941406 180.121094 8.941406 Z M 180.121094 8.941406 " fill-opacity="1" fill-rule="nonzero"/><path fill="rgb(100%, 100%, 100%)" d="M 195.695312 44.445312 C 114.839844 44.445312 49.292969 109.992188 49.292969 190.847656 C 49.292969 271.703125 114.839844 337.246094 195.695312 337.246094 C 276.550781 337.246094 342.097656 271.703125 342.097656 190.847656 C 342.097656 109.992188 276.550781 44.445312 195.695312 44.445312 Z M 195.695312 44.445312 " fill-opacity="1" fill-rule="nonzero"/><path fill="rgb(0%, 0%, 0%)" d="M 228.914062 92.527344 C 166.25 92.527344 115.449219 143.328125 115.449219 205.992188 C 115.449219 268.652344 166.25 319.453125 228.914062 319.453125 C 291.574219 319.453125 342.375 268.652344 342.375 205.992188 C 342.375 143.328125 291.574219 92.527344 228.914062 92.527344 Z M 228.914062 92.527344 " fill-opacity="1" fill-rule="nonzero"/><path fill="rgb(100%, 100%, 100%)" d="M 254.355469 126.085938 C 240.207031 126.085938 228.734375 137.554688 228.734375 151.703125 C 228.734375 165.855469 240.207031 177.324219 254.355469 177.324219 C 268.507812 177.324219 279.976562 165.855469 279.976562 151.703125 C 279.976562 137.554688 268.507812 126.085938 254.355469 126.085938 Z M 254.355469 126.085938 " fill-opacity="1" fill-rule="nonzero"/><path fill="rgb(100%, 100%, 100%)" d="M 143.195312 151.359375 C 113.546875 151.359375 89.511719 175.9375 89.511719 206.257812 C 89.511719 236.582031 113.546875 261.160156 143.195312 261.160156 C 172.839844 261.160156 196.875 236.582031 196.875 206.257812 C 196.875 175.9375 172.839844 151.359375 143.195312 151.359375 Z M 143.195312 151.359375 " fill-opacity="1" fill-rule="nonzero"/><g clip-path="url(#clip-2)"><path fill="rgb(100%, 100%, 100%)" d="M 201.070312 338.964844 C 122.210938 338.964844 58.328125 274.640625 58.328125 196.222656 C 58.328125 117.800781 122.210938 53.480469 201.070312 53.480469 C 279.933594 53.480469 343.8125 117.363281 343.8125 196.222656 C 343.8125 275.082031 279.492188 338.964844 201.070312 338.964844 Z M 201.070312 62.292969 C 127.058594 62.292969 67.140625 122.207031 67.140625 196.222656 C 67.140625 270.234375 127.058594 330.152344 201.070312 330.152344 C 275.085938 330.152344 335.003906 270.234375 335.003906 196.222656 C 335.003906 122.207031 274.644531 62.292969 201.070312 62.292969 Z M 201.070312 62.292969 " fill-opacity="1" fill-rule="nonzero"/></g></svg>