<?xml version="1.0" encoding="UTF-8"?><svg xmlns="http://www.w3.org/2000/svg" xmlns:xlink="http://www.w3.org/1999/xlink" contentScriptType="text/ecmascript" width="375" zoomAndPan="magnify" contentStyleType="text/css" viewBox="0 0 375 374.999991" height="374.999991" preserveAspectRatio="xMidYMid meet" version="1.0"><defs><clipPath id="clip-0"><path d="M 0 5.382812 L 360.75 5.382812 L 360.75 366.132812 L 0 366.132812 Z M 0 5.382812 " clip-rule="nonzero"/></clipPath></defs><path fill="rgb(0%, 0%, 0%)" d="M 195.03125 5.382812 C 97.691406 5.382812 18.78125 86.136719 18.78125 185.757812 C 18.78125 285.375 97.691406 366.132812 195.03125 366.132812 C 292.371094 366.132812 371.28125 285.375 371.28125 185.757812 C 371.28125 86.136719 292.371094 5.382812 195.03125 5.382812 Z M 195.03125 5.382812 " fill-opacity="1" fill-rule="nonzero"/><path fill="rgb(100%, 100%, 100%)" d="M 211.839844 41.328125 C 129.617188 41.328125 62.964844 107.984375 62.964844 190.203125 C 62.964844 272.425781 129.617188 339.078125 211.839844 339.078125 C 294.058594 339.078125 360.714844 272.425781 360.714844 190.203125 C 360.714844 107.984375 294.058594 41.328125 211.839844 41.328125 Z M 211.839844 41.328125 " fill-opacity="1" fill-rule="nonzero"/><path fill="rgb(0%, 0%, 0%)" d="M 245.449219 90.019531 C 181.664062 90.019531 129.949219 141.730469 129.949219 205.519531 C 129.949219 269.304688 181.664062 321.019531 245.449219 321.019531 C 309.238281 321.019531 360.949219 269.304688 360.949219 205.519531 C 360.949219 141.730469 309.238281 90.019531 245.449219 90.019531 Z M 245.449219 90.019531 " fill-opacity="1" fill-rule="nonzero"/><path fill="rgb(100%, 100%, 100%)" d="M 270.15625 123.996094 C 256.074219 123.996094 244.65625 135.410156 244.65625 149.496094 C 244.65625 163.578125 256.074219 174.996094 270.15625 174.996094 C 284.242188 174.996094 295.65625 163.578125 295.65625 149.496094 C 295.65625 135.410156 284.242188 123.996094 270.15625 123.996094 Z M 270.15625 123.996094 " fill-opacity="1" fill-rule="nonzero"/><path fill="rgb(100%, 100%, 100%)" d="M 157.6875 149.585938 C 127.863281 149.585938 103.6875 174.601562 103.6875 205.460938 C 103.6875 236.320312 127.863281 261.335938 157.6875 261.335938 C 187.511719 261.335938 211.6875 236.320312 211.6875 205.460938 C 211.6875 174.601562 187.511719 149.585938 157.6875 149.585938 Z M 157.6875 149.585938 " fill-opacity="1" fill-rule="nonzero"/><g clip-path="url(#clip-0)"><path fill="rgb(100%, 100%, 100%)" d="M 180.375 366.132812 C 80.722656 366.132812 0 284.851562 0 185.757812 C 0 86.660156 80.722656 5.382812 180.375 5.382812 C 280.027344 5.382812 360.75 86.105469 360.75 185.757812 C 360.75 285.410156 279.46875 366.132812 180.375 366.132812 Z M 180.375 16.515625 C 86.847656 16.515625 11.132812 92.230469 11.132812 185.757812 C 11.132812 279.285156 86.847656 354.996094 180.375 354.996094 C 273.902344 354.996094 349.617188 279.285156 349.617188 185.757812 C 349.617188 92.230469 273.347656 16.515625 180.375 16.515625 Z M 180.375 16.515625 " fill-opacity="1" fill-rule="nonzero"/></g></svg>